<svg xmlns="http://www.w3.org/2000/svg" width="26.25" height="22.5" viewBox="0 0 26.25 22.5">
    <path data-name="Path 2685" d="M25.5 6H6.75A3.753 3.753 0 0 0 3 9.75v15a3.753 3.753 0 0 0 3.75 3.75H25.5a3.753 3.753 0 0 0 3.75-3.75v-15A3.753 3.753 0 0 0 25.5 6zm-4.687 3.75A2.813 2.813 0 1 1 18 12.563a2.809 2.809 0 0 1 2.813-2.813zM6.75 26.625a1.872 1.872 0 0 1-1.875-1.875v-3.962l5.556-4.937a2.822 2.822 0 0 1 3.856.106l3.806 3.8-6.869 6.869zm20.625-1.875a1.872 1.872 0 0 1-1.875 1.875H13.875l7.119-7.112A2.79 2.79 0 0 1 24.6 19.5l2.775 2.312z" transform="translate(-3 -6)" style="fill:#00514e"/>
</svg>
